<svg id="visual" viewBox="0 0 900 600" width="900" height="600" xmlns="http://www.w3.org/2000/svg" xmlns:xlink="http://www.w3.org/1999/xlink" version="1.1"><g stroke-width="1" stroke-linejoin="bevel"><path d="M472 287L533 224L432 160Z" fill="#641d3b" stroke="#641d3b"></path><path d="M533 224L506 114L432 160Z" fill="#722042" stroke="#722042"></path><path d="M506 114L377 127L432 160Z" fill="#943e60" stroke="#943e60"></path><path d="M432 160L360 317L472 287Z" fill="#8e3559" stroke="#8e3559"></path><path d="M533 224L565 134L506 114Z" fill="#641d3b" stroke="#641d3b"></path><path d="M314 182L360 317L432 160Z" fill="#9b4767" stroke="#9b4767"></path><path d="M501 404L609 266L472 287Z" fill="#9b4767" stroke="#9b4767"></path><path d="M472 287L609 266L533 224Z" fill="#6b1f3f" stroke="#6b1f3f"></path><path d="M533 224L632 164L565 134Z" fill="#5d1c37" stroke="#5d1c37"></path><path d="M377 127L314 182L432 160Z" fill="#872c51" stroke="#872c51"></path><path d="M609 266L632 164L533 224Z" fill="#943e60" stroke="#943e60"></path><path d="M360 317L427 392L472 287Z" fill="#a24f6f" stroke="#a24f6f"></path><path d="M427 392L501 404L472 287Z" fill="#5d1c37" stroke="#5d1c37"></path><path d="M314 182L310 331L360 317Z" fill="#8e3559" stroke="#8e3559"></path><path d="M360 317L297 380L427 392Z" fill="#641d3b" stroke="#641d3b"></path><path d="M411 0L310 85L377 127Z" fill="#872c51" stroke="#872c51"></path><path d="M377 127L310 85L314 182Z" fill="#5d1c37" stroke="#5d1c37"></path><path d="M223 329L297 380L310 331Z" fill="#80234a" stroke="#80234a"></path><path d="M692 267L676 232L609 266Z" fill="#872c51" stroke="#872c51"></path><path d="M609 266L676 232L632 164Z" fill="#792246" stroke="#792246"></path><path d="M569 0L491 0L506 114Z" fill="#9b4767" stroke="#9b4767"></path><path d="M506 114L411 0L377 127Z" fill="#a24f6f" stroke="#a24f6f"></path><path d="M569 0L506 114L565 134Z" fill="#80234a" stroke="#80234a"></path><path d="M501 404L637 362L609 266Z" fill="#6b1f3f" stroke="#6b1f3f"></path><path d="M491 0L411 0L506 114Z" fill="#5d1c37" stroke="#5d1c37"></path><path d="M637 362L692 267L609 266Z" fill="#5d1c37" stroke="#5d1c37"></path><path d="M310 331L297 380L360 317Z" fill="#722042" stroke="#722042"></path><path d="M427 392L461 470L501 404Z" fill="#a24f6f" stroke="#a24f6f"></path><path d="M223 329L310 331L314 182Z" fill="#943e60" stroke="#943e60"></path><path d="M310 85L236 166L314 182Z" fill="#872c51" stroke="#872c51"></path><path d="M718 80L569 0L565 134Z" fill="#641d3b" stroke="#641d3b"></path><path d="M718 80L565 134L632 164Z" fill="#a24f6f" stroke="#a24f6f"></path><path d="M716 478L670 360L637 362Z" fill="#5d1c37" stroke="#5d1c37"></path><path d="M637 362L670 360L692 267Z" fill="#641d3b" stroke="#641d3b"></path><path d="M361 491L461 470L427 392Z" fill="#80234a" stroke="#80234a"></path><path d="M501 404L568 486L637 362Z" fill="#9b4767" stroke="#9b4767"></path><path d="M236 166L223 329L314 182Z" fill="#9b4767" stroke="#9b4767"></path><path d="M411 0L309 0L310 85Z" fill="#a24f6f" stroke="#a24f6f"></path><path d="M310 85L224 62L236 166Z" fill="#792246" stroke="#792246"></path><path d="M461 470L568 486L501 404Z" fill="#5d1c37" stroke="#5d1c37"></path><path d="M309 0L224 62L310 85Z" fill="#792246" stroke="#792246"></path><path d="M236 166L82 184L223 329Z" fill="#722042" stroke="#722042"></path><path d="M776 81L718 80L809 177Z" fill="#872c51" stroke="#872c51"></path><path d="M676 232L718 80L632 164Z" fill="#722042" stroke="#722042"></path><path d="M319 495L361 491L297 380Z" fill="#792246" stroke="#792246"></path><path d="M297 380L361 491L427 392Z" fill="#a24f6f" stroke="#a24f6f"></path><path d="M461 470L488 600L568 486Z" fill="#6b1f3f" stroke="#6b1f3f"></path><path d="M225 439L319 495L297 380Z" fill="#722042" stroke="#722042"></path><path d="M372 600L488 600L461 470Z" fill="#872c51" stroke="#872c51"></path><path d="M718 80L692 0L569 0Z" fill="#722042" stroke="#722042"></path><path d="M223 329L225 439L297 380Z" fill="#a24f6f" stroke="#a24f6f"></path><path d="M809 177L718 80L676 232Z" fill="#5d1c37" stroke="#5d1c37"></path><path d="M718 80L776 81L692 0Z" fill="#9b4767" stroke="#9b4767"></path><path d="M809 177L676 232L692 267Z" fill="#6b1f3f" stroke="#6b1f3f"></path><path d="M827 293L809 177L692 267Z" fill="#792246" stroke="#792246"></path><path d="M568 486L716 478L637 362Z" fill="#6b1f3f" stroke="#6b1f3f"></path><path d="M816 361L827 293L692 267Z" fill="#9b4767" stroke="#9b4767"></path><path d="M816 361L692 267L670 360Z" fill="#6b1f3f" stroke="#6b1f3f"></path><path d="M309 0L160 0L224 62Z" fill="#a24f6f" stroke="#a24f6f"></path><path d="M76 89L82 184L236 166Z" fill="#8e3559" stroke="#8e3559"></path><path d="M223 329L113 376L225 439Z" fill="#a24f6f" stroke="#a24f6f"></path><path d="M716 478L816 361L670 360Z" fill="#8e3559" stroke="#8e3559"></path><path d="M372 600L461 470L361 491Z" fill="#80234a" stroke="#80234a"></path><path d="M568 486L631 600L716 478Z" fill="#943e60" stroke="#943e60"></path><path d="M372 600L361 491L319 495Z" fill="#792246" stroke="#792246"></path><path d="M76 89L236 166L224 62Z" fill="#5d1c37" stroke="#5d1c37"></path><path d="M73 316L113 376L223 329Z" fill="#5d1c37" stroke="#5d1c37"></path><path d="M225 439L206 505L319 495Z" fill="#641d3b" stroke="#641d3b"></path><path d="M136 484L206 505L225 439Z" fill="#943e60" stroke="#943e60"></path><path d="M299 600L372 600L319 495Z" fill="#792246" stroke="#792246"></path><path d="M82 184L73 316L223 329Z" fill="#872c51" stroke="#872c51"></path><path d="M160 0L76 89L224 62Z" fill="#8e3559" stroke="#8e3559"></path><path d="M82 184L0 219L73 316Z" fill="#9b4767" stroke="#9b4767"></path><path d="M779 600L789 473L716 478Z" fill="#641d3b" stroke="#641d3b"></path><path d="M716 478L789 473L816 361Z" fill="#943e60" stroke="#943e60"></path><path d="M488 600L631 600L568 486Z" fill="#a24f6f" stroke="#a24f6f"></path><path d="M238 600L299 600L319 495Z" fill="#a24f6f" stroke="#a24f6f"></path><path d="M900 91L821 0L776 81Z" fill="#872c51" stroke="#872c51"></path><path d="M776 81L821 0L692 0Z" fill="#5d1c37" stroke="#5d1c37"></path><path d="M900 91L776 81L809 177Z" fill="#872c51" stroke="#872c51"></path><path d="M113 376L136 484L225 439Z" fill="#722042" stroke="#722042"></path><path d="M206 505L238 600L319 495Z" fill="#872c51" stroke="#872c51"></path><path d="M0 437L136 484L113 376Z" fill="#80234a" stroke="#80234a"></path><path d="M900 321L900 229L827 293Z" fill="#a24f6f" stroke="#a24f6f"></path><path d="M827 293L900 229L809 177Z" fill="#943e60" stroke="#943e60"></path><path d="M900 321L827 293L816 361Z" fill="#a24f6f" stroke="#a24f6f"></path><path d="M631 600L681 600L716 478Z" fill="#5d1c37" stroke="#5d1c37"></path><path d="M137 600L238 600L206 505Z" fill="#722042" stroke="#722042"></path><path d="M160 0L79 0L76 89Z" fill="#872c51" stroke="#872c51"></path><path d="M900 380L900 321L816 361Z" fill="#872c51" stroke="#872c51"></path><path d="M900 229L900 91L809 177Z" fill="#722042" stroke="#722042"></path><path d="M900 522L900 380L789 473Z" fill="#943e60" stroke="#943e60"></path><path d="M789 473L900 380L816 361Z" fill="#a24f6f" stroke="#a24f6f"></path><path d="M0 74L82 184L76 89Z" fill="#a24f6f" stroke="#a24f6f"></path><path d="M0 74L0 219L82 184Z" fill="#5d1c37" stroke="#5d1c37"></path><path d="M73 316L0 437L113 376Z" fill="#872c51" stroke="#872c51"></path><path d="M0 219L0 291L73 316Z" fill="#a24f6f" stroke="#a24f6f"></path><path d="M900 91L900 0L821 0Z" fill="#943e60" stroke="#943e60"></path><path d="M79 0L0 74L76 89Z" fill="#722042" stroke="#722042"></path><path d="M681 600L779 600L716 478Z" fill="#792246" stroke="#792246"></path><path d="M0 510L137 600L136 484Z" fill="#8e3559" stroke="#8e3559"></path><path d="M136 484L137 600L206 505Z" fill="#80234a" stroke="#80234a"></path><path d="M0 291L0 437L73 316Z" fill="#792246" stroke="#792246"></path><path d="M79 0L0 0L0 74Z" fill="#6b1f3f" stroke="#6b1f3f"></path><path d="M779 600L900 522L789 473Z" fill="#872c51" stroke="#872c51"></path><path d="M0 437L0 510L136 484Z" fill="#641d3b" stroke="#641d3b"></path><path d="M779 600L900 600L900 522Z" fill="#a24f6f" stroke="#a24f6f"></path><path d="M0 510L0 600L137 600Z" fill="#9b4767" stroke="#9b4767"></path></g></svg>